<?xml version="1.0" encoding="utf-8"?>
<!-- Generator: Adobe Illustrator 25.1.0, SVG Export Plug-In . SVG Version: 6.00 Build 0)  -->
<svg version="1.1" id="Layer_1" xmlns="http://www.w3.org/2000/svg" xmlns:xlink="http://www.w3.org/1999/xlink" x="0px" y="0px"
	 viewBox="0 0 439.41 410.79" style="enable-background:new 0 0 439.41 410.79;" xml:space="preserve">
<style type="text/css">
	.st0{fill:#9A9A9A;}
</style>
<path class="st0" d="M132.9,104.09h-16.01c-7.15,0-12.95-5.8-12.95-12.95v-71.1c0-7.15,5.8-12.95,12.95-12.95h16.01
	c7.15,0,12.95,5.8,12.95,12.95v71.1C145.85,98.29,140.05,104.09,132.9,104.09z"/>
<path class="st0" d="M321.9,104.09h-16.01c-7.15,0-12.95-5.8-12.95-12.95v-71.1c0-7.15,5.8-12.95,12.95-12.95h16.01
	c7.15,0,12.95,5.8,12.95,12.95v71.1C334.85,98.29,329.05,104.09,321.9,104.09z"/>
<path class="st0" d="M393.44,43.92h-43.46v65.09c0,9.98-8.09,18.07-18.07,18.07h-35.48c-9.98,0-18.07-8.09-18.07-18.07V43.92H159.97
	v65.09c0,9.98-8.09,18.07-18.07,18.07h-35.48c-9.98,0-18.07-8.09-18.07-18.07V43.92H45.93c-10.72,0-19.41,8.69-19.41,19.41v322.35
	c0,10.72,8.69,19.41,19.41,19.41h347.51c10.72,0,19.41-8.69,19.41-19.41V63.33C412.85,52.61,404.16,43.92,393.44,43.92z
	 M392.85,372.09h-347v-215h347V372.09z"/>
<rect x="233.85" y="174.09" class="st0" width="46" height="46"/>
<rect x="233.85" y="239.09" class="st0" width="46" height="46"/>
<rect x="233.85" y="304.09" class="st0" width="46" height="46"/>
<rect x="157.85" y="239.09" class="st0" width="46" height="46"/>
<rect x="157.85" y="304.09" class="st0" width="46" height="46"/>
<rect x="81.85" y="239.09" class="st0" width="46" height="46"/>
<rect x="81.85" y="304.09" class="st0" width="46" height="46"/>
<rect x="309.85" y="239.09" class="st0" width="46" height="46"/>
<rect x="309.85" y="304.09" class="st0" width="46" height="46"/>
<rect x="309.85" y="174.09" class="st0" width="46" height="46"/>
</svg>
